<?xml version="1.0" encoding="UTF-8"?>
<svg xmlns="http://www.w3.org/2000/svg" viewBox="0 0 740 120" width="500" height="81.0810810810811"><g transform="scale(1.2)"><g data-el="cube"><polygon points="10,50 28,62 28,86 10,74" fill="#c4ccd9"/><polygon points="46,50 28,62 28,86 46,74" fill="#8a98ad"/><polygon points="28,38 46,50 28,62 10,50" fill="#ffffff"/></g><g data-el="cube"><polygon points="32,34 50,46 50,70 32,58" fill="#c4ccd9"/><polygon points="68,34 50,46 50,70 68,58" fill="#8a98ad"/><polygon points="50,22 68,34 50,46 32,34" fill="#ffffff"/></g><g data-el="cube"><polygon points="54,18 72,30 72,54 54,42" fill="oklch(0.68 0.22 283)"/><polygon points="90,18 72,30 72,54 90,42" fill="oklch(0.55 0.24 283)"/><polygon points="72,6 90,18 72,30 54,18" fill="oklch(0.82 0.16 283)"/></g></g><text x="148" y="85.84" font-family="Manrope, sans-serif" font-weight="800" font-size="76" letter-spacing="-2.66" fill="#ffffff">Ascend Logic<tspan fill="#5d42ff">.</tspan></text></svg>